<?xml version="1.0" encoding="UTF-8" standalone="no"?>
<svg
   xmlns:dc="http://purl.org/dc/elements/1.1/"
   xmlns:cc="http://creativecommons.org/ns#"
   xmlns:rdf="http://www.w3.org/1999/02/22-rdf-syntax-ns#"
   xmlns:svg="http://www.w3.org/2000/svg"
   xmlns="http://www.w3.org/2000/svg"
   xmlns:sodipodi="http://sodipodi.sourceforge.net/DTD/sodipodi-0.dtd"
   xmlns:inkscape="http://www.inkscape.org/namespaces/inkscape"
   width="100px"
   height="100px"
   viewBox="0 0 100 100"
   version="1.1"
   id="svg18"
   sodipodi:docname="icon.svg"
   inkscape:version="1.0.2 (394de47547, 2021-03-26)">
  <metadata
     id="metadata22">
    <rdf:RDF>
      <cc:Work
         rdf:about="">
        <dc:format>image/svg+xml</dc:format>
        <dc:type
           rdf:resource="http://purl.org/dc/dcmitype/StillImage" />
        <dc:title>eclispe-che</dc:title>
      </cc:Work>
    </rdf:RDF>
  </metadata>
  <sodipodi:namedview
     pagecolor="#ffffff"
     bordercolor="#666666"
     borderopacity="1"
     objecttolerance="10"
     gridtolerance="10"
     guidetolerance="10"
     inkscape:pageopacity="0"
     inkscape:pageshadow="2"
     inkscape:window-width="1704"
     inkscape:window-height="757"
     id="namedview20"
     showgrid="false"
     inkscape:pagecheckerboard="true"
     inkscape:zoom="4.72"
     inkscape:cx="5.7414013"
     inkscape:cy="48.99602"
     inkscape:window-x="2773"
     inkscape:window-y="994"
     inkscape:window-maximized="0"
     inkscape:current-layer="layer3"
     inkscape:document-rotation="0" />
  <!-- Generator: Sketch 45.2 (43514) - http://www.bohemiancoding.com/sketch -->
  <title
     id="title2">eclispe-che</title>
  <desc
     id="desc4">Created with Sketch.</desc>
  <defs
     id="defs7">
    <path
       d="M50.0004412,4.04252804e-14 C22.3871247,4.04252804e-14 0,22.3848726 0,49.9995588 C0,77.6133626 22.3871247,100 50.0004412,100 C77.6137577,100 100,77.6133626 100,49.9995588 C100,22.3848726 77.6128753,3.55271368e-14 50.0004412,4.04252804e-14 Z"
       id="path-1" />
  </defs>
  <g
     inkscape:groupmode="layer"
     id="layer1"
     inkscape:label="BACKGROUND">
    <rect
       style="fill:#77b539;fill-opacity:1;fill-rule:evenodd;stroke:none;stroke-width:1.00609;stroke-opacity:1"
       id="rect1001"
       width="100.24678"
       height="100.19248"
       x="0.25267947"
       y="0.29735473" />
  </g>
  <g
     inkscape:groupmode="layer"
     id="layer3"
     inkscape:label="BACKGROUND 1">
    <g
       style="fill:#ffffff;fill-opacity:1;fill-rule:evenodd;stroke:none;stroke-width:1;stroke-opacity:1"
       id="Page-1"
       transform="matrix(0.77217603,0,0,0.82201794,11.774866,9.1849273)">
      <path
         id="path124"
         style="fill:#ffffff;fill-opacity:1;stroke-width:13.7465"
         d="m 0.43180169,0.30063922 c 0,6.66351088 0,13.32702178 0,19.99053278 C 28.790284,29.175854 57.148767,38.060535 85.50725,46.945217 57.148767,58.504188 28.790284,70.063158 0.43180169,81.622129 c 0,6.210394 0,12.420787 0,18.631181 C 33.516698,86.926286 66.601594,73.599263 99.68649,60.272239 c 0,-8.884681 0,-17.769363 0,-26.654044 C 66.601594,22.512343 33.516698,11.406491 0.43180169,0.30063922 Z" />
    </g>
  </g>
  <g
     inkscape:groupmode="layer"
     id="layer2"
     inkscape:label="PLACE LOGO HERE" />
</svg>
